<svg width="18" height="18" viewBox="0 0 18 18" fill="none" xmlns="http://www.w3.org/2000/svg">
<path d="M6.74934 9.00001C9.2344 9.00001 11.2489 6.98548 11.2489 4.50043C11.2489 2.01537 9.2344 0.000839233 6.74934 0.000839233C4.26429 0.000839233 2.24976 2.01537 2.24976 4.50043C2.24976 6.98548 4.26429 9.00001 6.74934 9.00001Z" fill="#E8E8E8"/>
<path d="M6.74938 10.4998C3.02369 10.5044 0.00453474 13.5235 0 17.2492C0 17.6634 0.335747 17.9991 0.749919 17.9991H12.7488C13.163 17.9991 13.4987 17.6634 13.4987 17.2492C13.4942 13.5235 10.4751 10.5044 6.74938 10.4998Z" fill="#E8E8E8"/>
<path d="M16.4986 5.90654C15.6297 5.94981 14.9592 6.68732 14.9987 7.55638C15.0382 6.68732 14.3678 5.94981 13.4988 5.90654C12.63 5.94981 11.9595 6.68732 11.999 7.55638C11.999 8.85377 13.6908 10.3739 14.5338 11.0503C14.8055 11.2679 15.1919 11.2679 15.4637 11.0503C16.3066 10.3754 17.9984 8.85377 17.9984 7.55638C18.0379 6.68729 17.3675 5.94981 16.4986 5.90654Z" fill="#E8E8E8"/>
</svg>
