<svg width="18" height="18" viewBox="0 0 18 18" fill="none" xmlns="http://www.w3.org/2000/svg">
<g clip-path="url(#clip0_2402_738)">
<path d="M7.50001 9C7.50001 8.17125 8.17126 7.5 9.00001 7.5C9.82876 7.5 10.5 8.17125 10.5 9C10.5 9.82875 9.82876 10.5 9.00001 10.5C8.17126 10.5 7.50001 9.82875 7.50001 9ZM10.455 12.3098C9.95551 12.1463 9.39751 12 9.00001 12C8.60551 12 8.05201 12.144 7.55476 12.306C6.87151 12.5288 6.46426 13.2278 6.59701 13.9343L7.23901 16.8248C7.39126 17.511 8.00026 17.9993 8.70301 17.9993H9.33751C10.0463 17.9993 10.6583 17.5028 10.8053 16.8098L11.415 13.9253C11.5403 13.2225 11.1338 12.531 10.455 12.3098ZM13.6545 11.3888C14.7 9.34875 14.322 6.89775 12.7125 5.28825C11.721 4.29675 10.4025 3.75 9.00001 3.75C7.59751 3.75 6.27901 4.29675 5.28751 5.28825C3.67801 6.89775 3.30001 9.34875 4.34551 11.3888C4.62901 11.94 5.30551 12.1598 5.86051 11.8763C6.41326 11.5928 6.63151 10.9148 6.34801 10.3613C5.74951 9.19425 5.96251 7.79475 6.87901 6.87825C8.01301 5.74425 9.98851 5.74425 11.1218 6.87825C12.0375 7.79475 12.2513 9.19425 11.6528 10.3613C11.3693 10.914 11.5883 11.5928 12.1403 11.8763C12.3045 11.9603 12.48 12 12.6525 12C13.0613 12 13.4558 11.7765 13.6545 11.3888ZM15.3638 2.63625C11.8553 -0.873746 6.14476 -0.873746 2.63626 2.63625C-0.872994 6.14475 -0.872994 11.8553 2.63626 15.3638C2.88526 15.6128 3.15151 15.849 3.42826 16.0673C3.63451 16.2308 3.88051 16.3095 4.12501 16.3095C4.45726 16.3095 4.78651 16.1633 5.00851 15.882C5.39326 15.3945 5.31001 14.6865 4.82251 14.3025C4.61401 14.1375 4.41376 13.9598 4.22701 13.773C1.59526 11.1405 1.59526 6.85875 4.22701 4.22625C6.85876 1.59375 11.1413 1.59525 13.7738 4.22625C16.4055 6.85875 16.4055 11.1405 13.7745 13.7715C13.5848 13.9613 13.3838 14.1398 13.1775 14.3025C12.6908 14.688 12.6075 15.3953 12.993 15.8828C13.3785 16.3688 14.0865 16.4528 14.5733 16.0673C14.8463 15.8513 15.1118 15.6143 15.3638 15.3638C18.873 11.8545 18.873 6.1455 15.3638 2.63625Z" fill="white"/>
</g>
<defs>
<clipPath id="clip0_2402_738">
<rect width="18" height="18" fill="white"/>
</clipPath>
</defs>
</svg>
